<svg width="40" height="40" viewBox="0 0 40 40" fill="none" xmlns="http://www.w3.org/2000/svg">
<g clip-path="url(#clip0_23_15)">
<path d="M19.64 39.28C30.4869 39.28 39.28 30.4869 39.28 19.64C39.28 8.79313 30.4869 0 19.64 0C8.79313 0 0 8.79313 0 19.64C0 30.4869 8.79313 39.28 19.64 39.28Z" fill="black"/>
<path d="M26.5 29.0001C24.32 29.9701 22.01 30.4301 19.39 30.4301C15.96 30.4301 13.15 29.4001 11.13 27.4001C9.25995 25.5601 8.19995 22.9701 8.19995 20.2601C8.19995 13.9601 13.63 8.84009 20.27 8.84009C25.76 8.84009 29.75 12.4901 29.75 17.5101C29.75 20.1901 28.56 22.5901 26.44 24.2501C25.35 25.1201 24.19 25.5901 23.17 25.5901C21.89 25.5901 21.3 24.8101 21.3 23.1601C21.3 23.0701 21.3 22.8501 21.33 22.6001C19.68 24.5601 17.99 25.5601 16.37 25.5601C15 25.5601 14.12 24.5601 14.12 22.9701C14.12 21.4701 14.81 19.5401 15.96 17.7901C17.46 15.5101 19.39 14.2001 21.2 14.2001C21.7 14.2001 22.1 14.2601 22.73 14.4501C22.95 14.5101 23.1 14.5401 23.23 14.5401C23.51 14.5401 23.6399 14.4501 24.2299 13.8201C24.3899 13.6601 24.5399 13.5701 24.6399 13.5701C24.76 13.5701 24.86 13.6601 24.86 13.8201C24.86 13.8801 24.83 14.0101 24.7999 14.1301C23.86 17.4401 23.12 21.2401 23.12 22.8001C23.12 23.8601 23.43 24.4201 24.06 24.4201C26.12 24.4201 28.18 20.9901 28.18 17.5901C28.18 13.0401 24.94 9.82009 20.29 9.82009C14.8 9.82009 10.53 14.4701 10.53 20.4601C10.53 25.9501 13.99 29.4101 19.51 29.4101C21.94 29.4101 24 28.9701 26.12 27.9801L26.5 29.0001ZM18.05 16.9301C16.96 18.4001 16.02 20.8901 16.02 22.3301C16.02 23.4501 16.61 24.1401 17.61 24.1401C18.64 24.1401 19.51 23.6101 20.51 22.4201C21.2 21.5801 21.45 21.0801 21.6 20.3301C21.72 19.5801 22.1 17.9901 22.57 16.4001C22.63 16.1501 22.69 15.9001 22.69 15.7501C22.69 15.3101 21.97 14.9101 21.16 14.9101C20.14 14.9001 19.01 15.6501 18.05 16.9301Z" fill="#FFFDFD"/>
</g>
<defs>
<clipPath id="clip0_23_15">
<rect width="39.29" height="39.29" fill="white"/>
</clipPath>
</defs>
</svg>
