<svg width="52" height="52" viewBox="0 0 52 52" fill="none" xmlns="http://www.w3.org/2000/svg">
<path d="M46.92 34.23V38.52H34.05V34.23H29.94V38.52H16.98V34.23H12.78V17.07H16.98V12.78H38.43V34.05H46.74V17.25H42.54V8.76H34.05V4.47H17.16V8.76H8.67V17.25H4.37999V34.05H8.67V42.54H17.16V46.83H34.05V42.54H42.72V47.01H34.23V51.3H16.98V47.01H8.48999V42.72H4.2V34.23H0V17.07H4.2V8.58H8.48999V4.29H16.98V0H34.23V4.29H42.72V8.58H46.92V17.07H51.21V34.23H46.92ZM29.75 17.25H21.44V34.05H29.75V17.25Z" fill="#FFFDFD"/>
</svg>
