<svg width="27" height="27" viewBox="0 0 27 27" fill="none" xmlns="http://www.w3.org/2000/svg">
<path d="M24.8118 17.5401V19.7283H18.2472V17.5401H16.1509V19.7283H9.5404V17.5401H7.39812V8.78736H9.5404V6.59917H20.4813V17.4483H24.72V8.87917H22.5777V4.5487H18.2472V2.36051H9.63221V4.5487H5.30174V8.87917H3.11355V17.4483H5.30174V21.7788H9.63221V23.967H18.2472V21.7788H22.6695V24.0588H18.3391V26.247H9.5404V24.0588H5.20992V21.8706H3.02174V17.5401H0.879456V8.78736H3.02174V4.45688H5.20992V2.2687H9.5404V0.0805054H18.3391V2.2687H22.6695V4.45688H24.8118V8.78736H27V17.5401H24.8118V17.5401ZM16.054 8.87917H11.8153V17.4483H16.054V8.87917Z" fill="#1F1F1F"/>
</svg>
