<svg width="50" height="50" viewBox="0 0 50 50" fill="none" xmlns="http://www.w3.org/2000/svg">
<path d="M24.9225 49.595C38.6178 49.595 49.72 38.4928 49.72 24.7975C49.72 11.1022 38.6178 0 24.9225 0C11.2272 0 0.125 11.1022 0.125 24.7975C0.125 38.4928 11.2272 49.595 24.9225 49.595Z" fill="#232323"/>
<path d="M33.5841 36.6154C30.8316 37.8401 27.915 38.4209 24.607 38.4209C20.2763 38.4209 16.7284 37.1205 14.1779 34.5952C11.8169 32.2721 10.4785 29.0019 10.4785 25.5803C10.4785 17.6259 17.3344 11.1614 25.7181 11.1614C32.6498 11.1614 37.6876 15.7699 37.6876 22.1081C37.6876 25.4919 36.1851 28.5221 33.5084 30.6181C32.1321 31.7165 30.6675 32.3099 29.3797 32.3099C27.7635 32.3099 27.0186 31.3251 27.0186 29.2418C27.0186 29.1282 27.0186 28.8504 27.0565 28.5348C24.9732 31.0095 22.8394 32.2721 20.794 32.2721C19.0642 32.2721 17.9531 31.0095 17.9531 29.0019C17.9531 27.108 18.8243 24.6712 20.2763 22.4617C22.1702 19.5829 24.607 17.9289 26.8923 17.9289C27.5236 17.9289 28.0287 18.0047 28.8241 18.2446C29.1019 18.3203 29.2913 18.3582 29.4554 18.3582C29.8089 18.3582 29.9731 18.2446 30.718 17.4491C30.92 17.2471 31.1094 17.1335 31.2357 17.1335C31.3872 17.1335 31.5134 17.2471 31.5134 17.4491C31.5134 17.5249 31.4756 17.689 31.4377 17.8405C30.2508 22.0197 29.3165 26.8176 29.3165 28.7873C29.3165 30.1256 29.7079 30.8327 30.5034 30.8327C33.1043 30.8327 35.7053 26.502 35.7053 22.2091C35.7053 16.4643 31.6145 12.3987 25.7434 12.3987C18.8117 12.3987 13.4204 18.2698 13.4204 25.8328C13.4204 32.7645 17.789 37.1331 24.7585 37.1331C27.8267 37.1331 30.4276 36.5775 33.1043 35.3276L33.5841 36.6154ZM22.9151 21.3758C21.5389 23.2318 20.3521 26.3757 20.3521 28.1939C20.3521 29.608 21.097 30.4792 22.3596 30.4792C23.6601 30.4792 24.7585 29.81 26.0211 28.3075C26.8923 27.2469 27.208 26.6156 27.3974 25.6687C27.5489 24.7217 28.0287 22.7142 28.6221 20.7066C28.6978 20.391 28.7736 20.0753 28.7736 19.8859C28.7736 19.3304 27.8645 18.8254 26.8418 18.8254C25.554 18.8127 24.1272 19.7597 22.9151 21.3758Z" fill="black"/>
</svg>
