<svg width="51" height="51" viewBox="0 0 51 51" fill="none" xmlns="http://www.w3.org/2000/svg">
<rect x="0.5" y="0.5" width="50" height="50" stroke="#1F1F1F"/>
<path d="M35.9324 29.4596V31.6478H29.3678V29.4596H27.2714V31.6478H20.6609V29.4596H18.5187V20.7069H20.6609V18.5187H31.6019V29.3678H35.8405V20.7987H33.6983V16.4682H29.3678V14.28H20.7528V16.4682H16.4223V20.7987H14.2341V29.3678H16.4223V33.6983H20.7528V35.8865H29.3678V33.6983H33.7901V35.9783H29.4596V38.1665H20.6609V35.9783H16.3305V33.7901H14.1423V29.4596H12V20.7069H14.1423V16.3764H16.3305V14.1882H20.6609V12H29.4596V14.1882H33.7901V16.3764H35.9324V20.7069H38.1206V29.4596H35.9324ZM27.1745 20.7987H22.9358V29.3678H27.1745V20.7987Z" fill="#1F1F1F"/>
</svg>
