<svg width="333" height="342" viewBox="0 0 333 342" fill="none" xmlns="http://www.w3.org/2000/svg">
<path d="M44.9746 272.5C45.9746 318 42.9746 324 18.9746 331C13.9746 332 11.9746 333.5 11.9746 336.5C11.9746 339.5 14.9746 342 19.9746 342C22.9746 342 28.4746 341.5 34.4746 340.5C45.4746 339 63.9746 338 80.9746 338C98.9746 338 111.475 338.5 136.975 340.5C146.975 341 154.975 341.5 159.975 341.5C196.475 341.5 238.975 327.5 266.975 306.5C308.975 275.5 332.975 225 332.975 168C332.975 115 311.975 69 274.975 39C241.975 13 196.475 0 137.975 0C125.475 0 114.475 0.500023 104.975 1.50001C68.4746 4.5 68.4746 4.5 43.9746 4.5H26.4746C16.4746 4.00001 9.47461 3.50001 6.97461 3.50001C2.97461 3.50001 0.974609 5.50002 0.974609 8.50001C0.974609 11.5 3.47461 13 8.97461 13.5C34.4746 16 44.9746 30 44.9746 63V272.5ZM82.4746 43.5C82.4746 32 83.9746 27 88.9746 23C95.4746 18 113.475 15 137.975 15C179.475 15 212.975 26.5 239.975 50C275.475 80.5 296.475 131.5 296.475 187.5C296.475 237 278.975 278.5 246.975 302C226.475 317.5 192.975 328 163.475 328C139.975 328 96.9746 318.5 87.9746 311C82.9746 306.5 82.4746 304.5 82.4746 289.5V43.5Z" fill="white"/>
</svg>
