<svg width="16" height="16" viewBox="0 0 16 16" fill="none" xmlns="http://www.w3.org/2000/svg">
<path d="M11.8082 16C11.8082 16 11.3151 15.181 10.9041 14.4572C12.6986 13.7524 13.3836 12.1905 13.3836 12.1905C12.8219 12.7048 12.2877 13.0667 11.8082 13.3143C11.1233 13.7143 10.4658 13.981 9.82192 14.1334C8.50685 14.4762 7.30137 14.381 6.27397 14.1143C5.49315 13.9048 4.82192 13.6 4.26027 13.2953C3.9452 13.1238 3.60274 12.9143 3.26027 12.6477C3.21918 12.6096 3.17808 12.5905 3.13698 12.5524C3.10959 12.5334 3.09589 12.5143 3.08219 12.4953C2.83561 12.3048 2.69863 12.1715 2.69863 12.1715C2.69863 12.1715 3.35616 13.6953 5.09589 14.4191C4.68493 15.1429 4.17808 16 4.17808 16C1.15068 15.8667 -1.42888e-06 13.1048 -1.42888e-06 13.1048C-1.42888e-06 6.97152 1.9726 2.00014 1.9726 2.00014C3.9452 -0.0569828 5.82192 0.000159281 5.82192 0.000159281L5.9589 0.228728C3.49315 1.21919 2.35616 2.72394 2.35616 2.72394C2.35616 2.72394 2.65753 2.49537 3.16438 2.17157C4.63013 1.27634 5.79452 1.02872 6.27397 0.971578C6.35616 0.952531 6.42466 0.933483 6.50685 0.933483C7.34246 0.781104 8.28767 0.743009 9.27397 0.895388C10.5753 1.10491 11.9726 1.63824 13.3973 2.72394C13.3973 2.72394 12.3151 1.29538 9.9863 0.304918L10.1781 0.000159281C10.1781 0.000159281 12.0548 -0.0569828 14.0274 2.00014C14.0274 2.00014 16 6.97152 16 13.1048C16 13.1048 14.8356 15.8667 11.8082 16ZM5.43835 7.10485C4.65753 7.10485 4.04109 8.05722 4.04109 9.21912C4.04109 10.381 4.67123 11.3334 5.43835 11.3334C6.21918 11.3334 6.83561 10.381 6.83561 9.21912C6.84931 8.05722 6.21918 7.10485 5.43835 7.10485ZM10.4384 7.10485C9.65753 7.10485 9.04109 8.05722 9.04109 9.21912C9.04109 10.381 9.67123 11.3334 10.4384 11.3334C11.2192 11.3334 11.8356 10.381 11.8356 9.21912C11.8356 8.05722 11.2192 7.10485 10.4384 7.10485Z" fill="white"/>
</svg>
