<svg width="341" height="347" viewBox="0 0 341 347" fill="none" xmlns="http://www.w3.org/2000/svg">
<path d="M277.432 258C277.432 275.5 275.432 284.5 269.932 291.5C249.432 317 216.932 331.5 180.932 331.5C101.932 331.5 41.4316 259 41.4316 164.5C41.4316 76.5 92.9316 14 165.432 14C225.432 14 282.932 49.5 308.932 102.5C310.432 105.5 311.432 106.5 313.432 106.5C316.432 106.5 318.932 104 318.932 101C318.932 99 318.432 96.5 317.932 93C314.932 81.5 311.432 54 310.432 34C310.432 27 308.932 23.5 305.932 23.5C304.932 23.5 303.932 24 302.432 25C294.432 31 293.932 31.5 292.432 31.5C291.432 31.5 289.932 31 287.932 29.5C262.932 13 213.432 0 176.432 0C75.4316 0 0.931641 76 0.931641 179.5C0.931641 230.5 20.9316 278 54.9316 307C82.9316 331.5 126.932 346.5 167.932 346.5C201.432 346.5 241.432 335.5 270.432 319C296.432 304 299.432 302.5 306.932 301C313.432 300 315.432 299 315.432 295.5L314.932 287.5V209.5C314.432 186.5 318.432 178.5 332.932 174.5C338.432 173.5 340.432 171.5 340.432 168.5C340.432 165.5 338.432 164 334.432 164C333.932 164 325.932 164.5 315.432 165C311.932 165.5 288.932 165.5 269.432 165.5L243.932 165C237.932 165 235.432 166.5 235.432 169.5C235.432 173 238.432 175 244.932 176C273.932 178.5 277.932 183.5 277.432 213V258Z" fill="white"/>
</svg>
