<svg width="353" height="347" viewBox="0 0 353 347" fill="none" xmlns="http://www.w3.org/2000/svg">
<path d="M179.385 0C134.885 0 90.8848 15 59.3848 40.5C23.8848 69.5 0.384766 122 0.384766 172C0.384766 229 23.3848 280.5 61.8848 311C90.3848 333 133.885 346.5 177.385 346.5C278.885 346.5 352.385 272 352.385 169C352.385 70.5 280.385 0 179.385 0ZM163.385 16C203.385 16 236.885 30 265.385 58C297.885 90 316.385 136.5 316.385 186.5C316.385 271 261.385 332.5 186.385 332.5C149.885 332.5 115.885 317.5 88.3848 289C54.8848 254.5 38.8848 210.5 38.8848 154.5C38.8848 70 87.3848 16 163.385 16Z" fill="white"/>
</svg>
