<svg width="50" height="50" viewBox="0 0 50 50" fill="none" xmlns="http://www.w3.org/2000/svg">
<path d="M24.7975 49.595C38.4928 49.595 49.595 38.4928 49.595 24.7975C49.595 11.1022 38.4928 0 24.7975 0C11.1022 0 0 11.1022 0 24.7975C0 38.4928 11.1022 49.595 24.7975 49.595Z" fill="#232323"/>
<path d="M21.2242 13.6235C21.1358 13.7119 20.9464 13.8129 20.8076 13.8129C20.5298 13.8129 20.353 13.6235 20.353 13.3963C20.353 12.1968 22.7898 10.8206 24.8984 10.8206C28.0675 10.8206 30.3655 12.9291 30.3655 15.8331C30.3655 17.7144 29.5826 19.3305 26.9691 22.7648C25.0878 25.2521 24.1661 27.3101 24.1661 29.103C24.1661 29.5197 24.2545 30.2015 24.3555 30.6686C24.4439 31.0348 24.4944 31.2242 24.4944 31.3631C24.4944 31.5525 24.3555 31.7292 24.2166 31.7292C23.5727 31.7292 23.0171 30.0752 23.0171 28.3328C23.0171 26.8177 23.4717 25.2521 24.81 22.4491C26.6029 18.5477 26.9691 17.5376 26.9691 16.0225C26.9691 14.1791 25.315 12.5756 23.3833 12.5756C22.4111 12.5629 21.906 12.7902 21.2242 13.6235ZM24.709 37.5498C24.8479 37.8276 25.3529 38.3326 25.8075 38.6988C26.5903 39.2543 26.6787 39.3932 26.6787 39.7594C26.6787 40.0371 26.5903 40.1255 25.8453 40.6306C25.113 41.224 24.7848 41.5901 24.3807 42.3351C24.2418 42.5623 24.0146 42.7012 23.7368 42.7012C23.459 42.7012 23.3201 42.6129 22.8151 41.8679C22.6257 41.5523 21.9818 40.9083 21.6661 40.6306C20.9717 40.176 20.8833 40.075 20.8833 39.671C20.8833 39.3553 20.9717 39.3048 21.6156 38.8882C21.9818 38.6609 22.7141 37.8781 22.9414 37.5119C23.3959 36.7291 23.4969 36.6786 23.8126 36.6786C24.1535 36.6786 24.2545 36.767 24.709 37.5498Z" fill="black"/>
</svg>
