<svg width="40" height="40" viewBox="0 0 40 40" fill="none" xmlns="http://www.w3.org/2000/svg">
<g clip-path="url(#clip0_23_6)">
<path d="M19.64 39.28C30.4869 39.28 39.28 30.4869 39.28 19.64C39.28 8.79313 30.4869 0 19.64 0C8.79313 0 0 8.79313 0 19.64C0 30.4869 8.79313 39.28 19.64 39.28Z" fill="black"/>
<path d="M16.8101 10.7901C16.7401 10.8601 16.5901 10.9401 16.4801 10.9401C16.2601 10.9401 16.1201 10.7901 16.1201 10.6101C16.1201 9.66007 18.0501 8.57007 19.7201 8.57007C22.2301 8.57007 24.0501 10.2401 24.0501 12.5401C24.0501 14.0301 23.4301 15.3101 21.3601 18.0301C19.8701 20.0001 19.1401 21.6301 19.1401 23.0501C19.1401 23.3801 19.2101 23.9201 19.2901 24.2901C19.3601 24.5801 19.4001 24.7301 19.4001 24.8401C19.4001 24.9901 19.2901 25.1301 19.1801 25.1301C18.6701 25.1301 18.2301 23.8201 18.2301 22.4401C18.2301 21.2401 18.5901 20.0001 19.6501 17.7801C21.0701 14.6901 21.3601 13.8901 21.3601 12.6901C21.3601 11.2301 20.0501 9.96007 18.5201 9.96007C17.7501 9.95007 17.3501 10.1301 16.8101 10.7901ZM19.5701 29.7401C19.6801 29.9601 20.0801 30.3601 20.4401 30.6501C21.0601 31.0901 21.1301 31.2001 21.1301 31.4901C21.1301 31.7101 21.0601 31.7801 20.4701 32.1801C19.8901 32.6501 19.6301 32.9401 19.3101 33.5301C19.2001 33.7101 19.0201 33.8201 18.8001 33.8201C18.5801 33.8201 18.4701 33.7501 18.0701 33.1601C17.9201 32.9101 17.4101 32.4001 17.1601 32.1801C16.6101 31.8201 16.5401 31.7401 16.5401 31.4201C16.5401 31.1701 16.6101 31.1301 17.1201 30.8001C17.4101 30.6201 17.9901 30.0001 18.1701 29.7101C18.5301 29.0901 18.6101 29.0501 18.8601 29.0501C19.1301 29.0501 19.2101 29.1201 19.5701 29.7401Z" fill="#FFFDFD"/>
</g>
<defs>
<clipPath id="clip0_23_6">
<rect width="39.29" height="39.29" fill="white"/>
</clipPath>
</defs>
</svg>
