<svg width="30" height="26" viewBox="0 0 30 26" fill="none" xmlns="http://www.w3.org/2000/svg">
<path d="M30 2.95927C28.9328 3.46069 27.7858 3.8006 26.5823 3.95287C27.8105 3.17153 28.7544 1.93491 29.1981 0.461425C28.0483 1.18432 26.7752 1.71035 25.4194 1.99335C24.3348 0.765965 22.7891 0 21.0781 0C17.7924 0 15.1288 2.82546 15.1288 6.31075C15.1288 6.80601 15.181 7.28743 15.2825 7.74886C10.338 7.48585 5.95317 4.97416 3.01837 1.1551C2.50652 2.08718 2.21217 3.17153 2.21217 4.32816C2.21217 6.51839 3.26197 8.44869 4.85842 9.58071C3.88257 9.54841 2.96617 9.26387 2.16287 8.79168C2.16287 8.81783 2.16287 8.84397 2.16287 8.87166C2.16287 11.9294 4.21317 14.4795 6.93482 15.0594C6.43602 15.2039 5.90967 15.2808 5.36737 15.2808C4.98457 15.2808 4.61192 15.2409 4.24797 15.167C5.00487 17.6741 7.20307 19.4998 9.80582 19.5506C7.77002 21.244 5.20352 22.253 2.41662 22.253C1.93667 22.253 1.46252 22.2237 0.99707 22.1653C3.63027 23.9556 6.75792 25.0015 10.1176 25.0015C21.0607 25.0015 27.0463 15.3854 27.0463 7.04442C27.0463 6.77064 27.0405 6.4984 27.0289 6.22769C28.1933 5.33715 29.2025 4.22511 30 2.95927Z" fill="#6B6B6B"/>
</svg>
