<svg width="31" height="31" viewBox="0 0 31 31" fill="none" xmlns="http://www.w3.org/2000/svg">
<path d="M18.0087 1.90913C18.5621 3.62533 20.5911 4.36249 22.1128 3.40649C24.3839 1.97824 27.1622 4.30491 26.1477 6.79282C25.4675 8.46295 26.5397 10.3289 28.3381 10.5708C31.0011 10.9393 31.6352 14.4984 29.2488 15.7539C27.6579 16.5947 27.2775 18.7141 28.4879 20.0502C30.2864 22.0428 28.4764 25.1757 25.848 24.6114C24.0841 24.2313 22.4356 25.6134 22.5048 27.4218C22.6085 30.1055 19.2077 31.3379 17.5476 29.2186C16.4409 27.7904 14.2851 27.7904 13.1784 29.2186C11.5298 31.3379 8.12898 30.1055 8.22121 27.4218C8.29038 25.6134 6.64184 24.2313 4.87802 24.6114C2.24957 25.1757 0.43962 22.0428 2.23803 20.0502C3.4485 18.7141 3.07959 16.5947 1.47716 15.7539C-0.897664 14.4984 -0.275127 10.9393 2.3879 10.5708C4.17479 10.3289 5.25844 8.46295 4.57827 6.79282C3.56378 4.30491 6.3421 1.97824 8.61317 3.40649C10.1464 4.36249 12.1639 3.62533 12.7172 1.90913C13.5588 -0.636377 17.1787 -0.636377 18.0087 1.90913Z" fill="#020202"/>
<path d="M13.9854 22.0082L9.05127 17.0784L11.2878 14.8554L13.9854 17.5507L21.2713 10.2827L23.4962 12.5172L13.9854 22.0082Z" fill="white"/>
</svg>
